<svg xmlns="http://www.w3.org/2000/svg" xmlns:xlink="http://www.w3.org/1999/xlink" viewBox="0 0 274.8 283.87"><defs><style>.cls-1{fill:#314e66;}.cls-2{fill:#86c5ef;}.cls-3{fill:#578fb5;}.cls-4{fill:#2b4556;}.cls-5{fill:#69ffff;}.cls-6,.cls-8{fill:#fff;}.cls-7{fill:#a5a5a5;}.cls-8{stroke:#dadada;stroke-miterlimit:10;}.cls-9{fill:#33bacc;}.cls-10{fill:#dadada;}.cls-11{fill:#878787;}.cls-12{fill:url(#Namnlös_övertoning_56);}.cls-13{fill:url(#Namnlös_övertoning_56-2);}.cls-14{fill:url(#Namnlös_övertoning_56-3);}.cls-15{fill:url(#Namnlös_övertoning_56-4);}.cls-16{fill:url(#Namnlös_övertoning_56-5);}.cls-17{fill:url(#Namnlös_övertoning_56-6);}.cls-18{fill:url(#Namnlös_övertoning_56-7);}.cls-19{fill:url(#Namnlös_övertoning_56-8);}.cls-20{fill:url(#Namnlös_övertoning_56-9);}.cls-21{fill:url(#Namnlös_övertoning_56-10);}.cls-22{fill:url(#Namnlös_övertoning_56-11);}.cls-23{fill:url(#Namnlös_övertoning_56-12);}.cls-24{fill:url(#Namnlös_övertoning_56-13);}.cls-25{fill:url(#Namnlös_övertoning_56-14);}.cls-26{fill:url(#Namnlös_övertoning_56-15);}.cls-27{fill:url(#Namnlös_övertoning_56-16);}.cls-28{fill:url(#Namnlös_övertoning_56-17);}.cls-29{fill:url(#Namnlös_övertoning_56-18);}</style><linearGradient id="Namnlös_övertoning_56" x1="39.75" y1="231.03" x2="119.47" y2="231.03" gradientUnits="userSpaceOnUse"><stop offset="0" stop-color="#ffef26"/><stop offset="0" stop-color="#fff145"/><stop offset="0" stop-color="#fff576"/><stop offset="0" stop-color="#fff8a0"/><stop offset="0" stop-color="#fffbc2"/><stop offset="0" stop-color="#fffcdd"/><stop offset="0" stop-color="#fffef0"/><stop offset="0" stop-color="#fffffb"/><stop offset="0" stop-color="#fff"/><stop offset="0" stop-color="#f18f34"/><stop offset="0.08" stop-color="#fdc800"/><stop offset="0.53" stop-color="#e95f32"/><stop offset="0.55" stop-color="#ea6432"/><stop offset="1" stop-color="#e3312d"/></linearGradient><linearGradient id="Namnlös_övertoning_56-2" x1="49.39" y1="220.77" x2="110.3" y2="220.77" xlink:href="#Namnlös_övertoning_56"/><linearGradient id="Namnlös_övertoning_56-3" x1="102.14" y1="266.58" x2="151.62" y2="266.58" gradientTransform="translate(-27.41 -45.25) rotate(4.81)" xlink:href="#Namnlös_övertoning_56"/><linearGradient id="Namnlös_övertoning_56-4" x1="76.04" y1="242.66" x2="146.84" y2="242.66" xlink:href="#Namnlös_övertoning_56"/><linearGradient id="Namnlös_övertoning_56-5" x1="35.39" y1="260.82" x2="84.53" y2="260.82" xlink:href="#Namnlös_övertoning_56"/><linearGradient id="Namnlös_övertoning_56-6" x1="88.55" y1="236.78" x2="127.15" y2="236.78" xlink:href="#Namnlös_övertoning_56"/><linearGradient id="Namnlös_övertoning_56-7" x1="113.56" y1="214.02" x2="125.37" y2="214.02" xlink:href="#Namnlös_övertoning_56"/><linearGradient id="Namnlös_övertoning_56-8" x1="117.5" y1="225.91" x2="138.13" y2="225.91" xlink:href="#Namnlös_övertoning_56"/><linearGradient id="Namnlös_övertoning_56-9" x1="126.7" y1="215.05" x2="131.1" y2="215.05" xlink:href="#Namnlös_övertoning_56"/><linearGradient id="Namnlös_övertoning_56-10" x1="301.96" y1="311.24" x2="307.44" y2="311.24" gradientTransform="translate(-86.48 -184.75) rotate(17.81)" xlink:href="#Namnlös_övertoning_56"/><linearGradient id="Namnlös_övertoning_56-11" x1="91.16" y1="203.2" x2="105.32" y2="203.2" xlink:href="#Namnlös_övertoning_56"/><linearGradient id="Namnlös_övertoning_56-12" x1="110.02" y1="228.86" x2="117.1" y2="228.86" xlink:href="#Namnlös_övertoning_56"/><linearGradient id="Namnlös_övertoning_56-13" x1="136.56" y1="220.77" x2="143.65" y2="220.77" xlink:href="#Namnlös_övertoning_56"/><linearGradient id="Namnlös_övertoning_56-14" x1="323.29" y1="400.08" x2="330.38" y2="400.08" gradientTransform="translate(-87.64 -236.48) rotate(25.94)" xlink:href="#Namnlös_övertoning_56"/><linearGradient id="Namnlös_övertoning_56-15" x1="194.33" y1="346.75" x2="199.68" y2="346.75" gradientTransform="translate(-62.56 -126.75) rotate(14.74)" xlink:href="#Namnlös_övertoning_56"/><linearGradient id="Namnlös_övertoning_56-16" x1="656.02" y1="1008.33" x2="661.5" y2="1008.33" gradientTransform="matrix(0.39, 0.39, -0.38, 0.38, 200.81, -374.17)" xlink:href="#Namnlös_övertoning_56"/><linearGradient id="Namnlös_övertoning_56-17" x1="175.95" y1="357.1" x2="181.3" y2="357.1" gradientTransform="translate(-62.56 -126.75) rotate(14.74)" xlink:href="#Namnlös_övertoning_56"/><linearGradient id="Namnlös_övertoning_56-18" x1="403.44" y1="680.63" x2="408.93" y2="680.63" gradientTransform="matrix(0.51, 0.38, -0.43, 0.59, 130.86, -306.91)" xlink:href="#Namnlös_övertoning_56"/></defs><g id="Lager_7" data-name="Lager 7"><path class="cls-1" d="M120.12,125.1s-44-2.08-47.21,43.13c0,0,18.14-12.76,36.07,1.3S120.12,125.1,120.12,125.1Z"/><path class="cls-2" d="M218.24,171.42c-27.16,35.33-68.33,49.25-91.95,31.09s-20.74-61.52,6.42-96.84S221.28,30.08,244.9,48.24,245.4,136.1,218.24,171.42Z"/><path class="cls-3" d="M214.43,106.36s10.07,8.33,14.28,30.74l-10.63-13.54Z"/><path class="cls-4" d="M201.41,189.26s13.17,41.52-29.24,56.12c0,0,7.58-20.59-10.42-34.17S201.41,189.26,201.41,189.26Z"/><path class="cls-3" d="M174.75,149.71s15.68,9.45,27.66,8.48l-1.7-8.84Z"/><path class="cls-3" d="M141.71,203.11s52.95-19.41,99.4-125.37c0,0,8.75,10,11.34,17.26,0,0-21.39,109.69-101,115.61"/><circle class="cls-1" cx="188.12" cy="122.1" r="30.66"/><circle class="cls-5" cx="188.12" cy="122.1" r="24.64"/><path class="cls-6" d="M205.8,110.52a18,18,0,0,1,2.78,5.73c1,3.66.92,8.39-1.8,11.37-3,3.35-1.05-.57-1-5.85,0-3.74-1.13-8.48-5-10.4C191.49,106.75,200.41,102.53,205.8,110.52Z"/><polygon class="cls-1" points="112 180.27 151.47 210.61 150 222.58 101.96 185.64 112 180.27"/><path class="cls-6" d="M115.93,88.31h27a0,0,0,0,1,0,0V112a9,9,0,0,1-9,9h-7.34a10.63,10.63,0,0,1-10.63-10.63V88.31a0,0,0,0,1,0,0Z" transform="translate(90.62 -57.2) rotate(37.55)"/><path class="cls-7" d="M125.57,87.55c1.88,4.15,3.83,9.16,7.7,12.13s9.21,3.58,13.71,4.32l3.13-4.07-21.4-16.46Z"/><rect class="cls-6" x="112.86" y="81.94" width="12.6" height="20.5" rx="4.74" transform="translate(80.88 -53.52) rotate(37.55)"/><path class="cls-6" d="M132.24,134.65l7.58-5.13c1.14-.77-.11-1.42-.88-2.57l-8.23-20.69c-1.7-2.51-7.5-1.37-10,.33L115.6,110a2.51,2.51,0,0,0-.67,3.47L128.77,134A2.5,2.5,0,0,0,132.24,134.65Z"/><path class="cls-6" d="M134.2,116.51H138a2.5,2.5,0,0,1,2.5,2.5V133.3a2.5,2.5,0,0,1-2.5,2.5h-5.86a2.5,2.5,0,0,1-2.5-2.5V121A4.5,4.5,0,0,1,134.2,116.51Z" transform="translate(163.97 -56.44) rotate(55.94)"/><path class="cls-7" d="M129.63,135.24l-1.24-1.83a.13.13,0,0,1,0-.18l15.76-10.65a.13.13,0,0,1,.18,0l1.24,1.84-.12.69c0,.22-.09.44-.14.65L131,135.5A1,1,0,0,1,129.63,135.24Z"/><circle class="cls-6" cx="149.34" cy="79.71" r="7.69"/><circle class="cls-6" cx="152.99" cy="74.03" r="28.68"/><ellipse class="cls-6" cx="155.2" cy="99.43" rx="4.37" ry="4.64" transform="translate(-18.22 161.87) rotate(-52.45)"/><ellipse class="cls-6" cx="177.87" cy="78.83" rx="3.66" ry="4.64" transform="translate(6.96 171.8) rotate(-52.45)"/><path class="cls-5" d="M180.41,82.46l-7-.61-24.09-2.14s-1,14.3,9.1,22.08l.45.31a28.67,28.67,0,0,0,21.52-19.64Z"/><circle class="cls-7" cx="149.34" cy="79.71" r="5.78"/><path class="cls-6" d="M168.52,84.11l7.37.7s1.08,2.78-5.18,8.64C170.71,93.45,175.18,86.46,168.52,84.11Z"/><path class="cls-8" d="M140.43,108l2.73-4.41a2.5,2.5,0,0,0-.81-3.43l-8.88-5.49a2.5,2.5,0,0,0-3.43.81l-3.62,5.81a2.49,2.49,0,0,0,.81,3.44L137,108.8A2.49,2.49,0,0,0,140.43,108Z"/><path class="cls-7" d="M146.28,100.65l-2.36,1c-.26.11-1.44.66-1.63.72a4.91,4.91,0,0,0-2.54,1.91l-.08.12c-.84,1.33-1.33,3.74-.36,4.92.11.13,2.51,2.3,2.51,2.3a4.17,4.17,0,0,0,5.74-1.27l.83-1.29a4.18,4.18,0,0,0-1.19-5.69l-.08,0s-.05,0,0-.08a.11.11,0,0,1,.06,0l.17-.07a1.07,1.07,0,0,0,.56-1.39l-.22-.51A1.05,1.05,0,0,0,146.28,100.65Z"/><path class="cls-1" d="M197.76,53s37.13,5.3,54.69,42c0,0,8.34-35.84-7.65-46.62C244.8,48.38,234.53,34.9,197.76,53Z"/><path class="cls-4" d="M241.11,77.74S247,64.87,249.26,52.8c0,0,8.94,10.89,2.94,43.45C252.2,96.25,251.39,87.43,241.11,77.74Z"/><polygon class="cls-4" points="133.09 209.58 141.71 203.11 151.47 210.61 150 222.58 133.09 209.58"/><path class="cls-9" d="M153,95.43a18.91,18.91,0,0,0,11.92,1.67c6.88-1.4,12.5-6.94,14.77-14.3l.76-.34s-3,15.46-21.52,19.64c-.55-.46-1.11-.95-1.67-1.49A28.06,28.06,0,0,1,153,95.43Z"/><path class="cls-10" d="M179.87,64s1,10.15-4,13.22l5.64.18S182.44,69.26,179.87,64Z"/><path class="cls-10" d="M177.78,82.23s2.9-.66,3.91-5.08c0,0,1.91,3.92-1.24,5.24Z"/><path class="cls-10" d="M157.22,100.61s.49,3-4.68,2.29c0,0,3.73,2.68,6.35-.8Z"/><path class="cls-11" d="M154.56,77.24s.48,3.47-1.47,5.36c0,0-1.16,2.38-4.8,2.8,0,0,4.09.28,5.63-2.16A6.1,6.1,0,0,0,154.56,77.24Z"/><path class="cls-11" d="M147.2,103.36s1.64,8.58-4.22,8.76c0,0,3.23.72,4.58-1.78a5.69,5.69,0,0,0,1.47-3.79A4.44,4.44,0,0,0,147.2,103.36Z"/><path class="cls-11" d="M147.09,103.23l.79-1.5A1.23,1.23,0,0,1,147.09,103.23Z"/><path class="cls-10" d="M115.84,102.09a5.66,5.66,0,0,0,2.74-1.69c.74-1.14,8.34-10.84,8.34-10.84s1.41-1.78,1-3.13c0,0,1.45,2.88-.36,5.23l-7.67,10S116.44,103.18,115.84,102.09Z"/><path class="cls-10" d="M140.64,118.38s2.75,3.45,1.61,5.5l2.11-1.27S142.11,118.74,140.64,118.38Z"/><path class="cls-11" d="M141.9,128.12s1-3,.35-4.24l2.11-1.27s2.62,2.08.08,3.79Z"/><polygon class="cls-10" points="135.66 118.72 140.57 110.27 141.39 111.28 135.66 118.72"/><path class="cls-12" d="M39.75,263s.37-.13,1.06-.41c7.58-3.06,53.81-23,78.59-63.54,0,0,5.36,39.63-79.28,63.82"/><path class="cls-13" d="M110.3,190.06l-.42.23c-17.1,9.44-42.56,12.1-51,34.32-8.55,22.39-7.32,19.68-9,25.83S49,235,110,190.22"/><path class="cls-14" d="M103.59,206.21S71.1,226.57,49.76,255.85C49.76,255.85,91.48,222.85,103.59,206.21Z"/><path class="cls-15" d="M146.84,220.15s-6.09,37.06-70.8,45c0,0,19.76-4,70.16-45"/><path class="cls-16" d="M35.39,269.18s33.83-3.91,49.14-16.79C84.53,252.39,39.23,270.5,35.39,269.18Z"/><path class="cls-17" d="M88.55,251s24.81-11,38.6-28.39C127.15,222.58,92.38,249.13,88.55,251Z"/><path class="cls-18" d="M124.34,203.11s-2.56,13.64-10.78,21.82C113.56,224.93,129.52,218.23,124.34,203.11Z"/><path class="cls-19" d="M138.13,215.05s-9,5.85-20.63,21.73A30.27,30.27,0,0,0,138.13,215.05Z"/><path class="cls-20" d="M131.1,210.41s-4.69,6.27-4.39,9.27C126.71,219.68,128.89,219.25,131.1,210.41Z"/><path class="cls-21" d="M112.15,197.31s-3,9.53-7.83,13.28S114.19,209.42,112.15,197.31Z"/><path class="cls-22" d="M105.32,197.31s-13.21,8.3-14.16,11.79C91.16,209.1,103.68,202.82,105.32,197.31Z"/><path class="cls-23" d="M117.1,225.91s-6.6,4.15-7.08,5.89C110,231.8,116.28,228.67,117.1,225.91Z"/><path class="cls-24" d="M143.65,217.82s-6.61,4.15-7.09,5.89C136.56,223.71,142.82,220.58,143.65,217.82Z"/><path class="cls-25" d="M35.72,265.17s-7.76.84-8.95,2.2C26.77,267.37,33.77,267.29,35.72,265.17Z"/><path class="cls-26" d="M42.79,257.68s-5.46,1.15-6.08,2.07C36.71,259.75,41.76,259.13,42.79,257.68Z"/><path class="cls-27" d="M73.81,262.69s-3.81,3.82-7,4.42S71.83,269,73.81,262.69Z"/><path class="cls-28" d="M22.38,263s-5.46,1.15-6.08,2.08C16.3,265.08,21.36,264.45,22.38,263Z"/><path class="cls-29" d="M48.53,245.93s-4.33,5.95-8.28,7.66S46.7,254.53,48.53,245.93Z"/></g></svg>