<svg xmlns="http://www.w3.org/2000/svg" xmlns:xlink="http://www.w3.org/1999/xlink" viewBox="0 0 171.02 222.62"><defs><style>.cls-1{fill:#314e66;}.cls-2{fill:#86c5ef;}.cls-3{fill:#578fb5;}.cls-4{fill:#2b4556;}.cls-5{fill:#69ffff;}.cls-6{fill:#fff;}.cls-7{fill:url(#Namnlös_övertoning_28);}</style><linearGradient id="Namnlös_övertoning_28" x1="-376.11" y1="-152.88" x2="60.2" y2="-152.88" gradientUnits="userSpaceOnUse"><stop offset="0" stop-color="#ffef26"/><stop offset="0" stop-color="#ffea21"/><stop offset="0" stop-color="#fed70f"/><stop offset="0" stop-color="#fdcc04"/><stop offset="0" stop-color="#fdc800"/><stop offset="0.36" stop-color="#f18f34"/><stop offset="0.74" stop-color="#e95f32"/><stop offset="1" stop-color="#e3312d"/></linearGradient></defs><g id="Lager_4" data-name="Lager 4"><path class="cls-1" d="M36.12,150.76S2.24,174.35,25.68,209.82c0,0,6.19-19.85,27.56-19.65S36.12,150.76,36.12,150.76Z"/><path class="cls-2" d="M142.4,127.74c0,44.56-24.16,80.69-53.95,80.69S34.51,172.3,34.51,127.74,58.66,13.83,88.45,13.83,142.4,83.18,142.4,127.74Z"/><path class="cls-3" d="M99.72,78.48s13,.46,30.06,15.67l-16.69-4.26Z"/><path class="cls-4" d="M138,149.14s35.75,24.88,11,62.31c0,0-6.54-20.95-29.09-20.74S138,149.14,138,149.14Z"/><path class="cls-3" d="M94.68,137s18.19-2.06,27.1-10.14l-6.74-6Z"/><path class="cls-3" d="M101,199.51s30.14-47.67,2.39-160c0,0,13,2.55,19.51,6.77,0,0,49.9,100-9.59,153.21"/><circle class="cls-1" cx="88.45" cy="107" r="30.66"/><circle class="cls-5" cx="88.45" cy="107" r="24.64"/><path class="cls-6" d="M95.41,87a17.85,17.85,0,0,1,5.7,2.85c3,2.29,5.84,6.08,5.51,10.11-.38,4.5-1.19.18-4.39-4C100,93,96.16,90,92,90.78,81.77,92.77,86.27,84,95.41,87Z"/><polygon class="cls-1" points="63.56 199.51 113.34 199.51 119.48 209.89 58.87 209.89 63.56 199.51"/><path class="cls-1" d="M54,46.3s32.66-18.42,69,0c0,0-15.23-33.5-34.49-32.3C88.45,14,72.09,9.58,54,46.3Z"/><path class="cls-4" d="M103.43,39.53s-3.18-13.79-8.75-24.74c0,0,13.73,3.19,28.82,32.65C123.5,47.44,117.48,40.94,103.43,39.53Z"/><polygon class="cls-4" points="98.14 209.89 101.04 199.51 113.34 199.51 119.48 209.89 98.14 209.89"/><circle class="cls-7" cx="-157.96" cy="-152.88" r="218.15"/></g></svg>